<?xml version="1.0" standalone="no"?>
<!DOCTYPE svg PUBLIC "-//W3C//DTD SVG 20010904//EN"
 "http://www.w3.org/TR/2001/REC-SVG-20010904/DTD/svg10.dtd">
<svg version="1.0" xmlns="http://www.w3.org/2000/svg"
 width="512.000000pt" height="512.000000pt" viewBox="0 0 512.000000 512.000000"
 preserveAspectRatio="xMidYMid meet">

<g transform="translate(0.000000,512.000000) scale(0.100000,-0.100000)"
fill="#000000" stroke="none">
<path d="M650 4257 c-26 -7 -62 -23 -81 -35 -53 -32 -133 -122 -164 -182 -56
-110 -55 -75 -55 -1480 0 -1406 -1 -1369 55 -1481 38 -73 126 -163 194 -196
77 -38 172 -38 251 1 31 15 387 288 825 634 l770 608 6 -461 c4 -337 9 -471
18 -500 39 -120 133 -235 230 -282 81 -40 177 -39 255 2 88 47 1664 1294 1708
1353 142 185 142 459 0 644 -44 58 -1619 1306 -1707 1352 -78 41 -176 42 -256
3 -97 -47 -191 -162 -230 -282 -9 -29 -14 -163 -18 -501 l-6 -460 -525 413
c-289 228 -637 503 -775 611 -137 108 -270 207 -295 219 -57 28 -142 36 -200
20z"/>
</g>
</svg>
